<svg width="50" height="50" viewBox="0 0 50 50" fill="none" xmlns="http://www.w3.org/2000/svg">
<rect width="50" height="50" rx="25" fill="#FFEEE3"/>
<path d="M25 29C27.2091 29 29 27.2091 29 25C29 22.7909 27.2091 21 25 21C22.7909 21 21 22.7909 21 25C21 27.2091 22.7909 29 25 29Z" stroke="#FF6600" stroke-width="2" stroke-linecap="round" stroke-linejoin="round"/>
<path d="M29 21V26C29 26.7956 29.3161 27.5587 29.8787 28.1213C30.4413 28.6839 31.2044 29 32 29C32.7957 29 33.5587 28.6839 34.1213 28.1213C34.6839 27.5587 35 26.7956 35 26V25C34.9999 22.743 34.2362 20.5525 32.8333 18.7845C31.4303 17.0166 29.4706 15.7752 27.2726 15.2623C25.0747 14.7494 22.7679 14.995 20.7274 15.9594C18.6868 16.9237 17.0324 18.5499 16.0333 20.5737C15.0341 22.5975 14.749 24.8997 15.2242 27.1061C15.6994 29.3125 16.907 31.2932 18.6506 32.7263C20.3943 34.1593 22.5714 34.9603 24.8281 34.9991C27.0847 35.0379 29.2881 34.3122 31.08 32.94" stroke="#FF6600" stroke-width="2" stroke-linecap="round" stroke-linejoin="round"/>
</svg>
