<svg width="92" height="92" viewBox="0 0 92 92" fill="none" xmlns="http://www.w3.org/2000/svg">
<circle cx="46" cy="46" r="46" fill="#FFEEE3"/>
<g clip-path="url(#clip0_204_784)">
<path d="M59.0374 40.8796H58.7701L56.2643 34.4257C56.0449 33.8606 55.4742 33.481 54.8441 33.481H37.1559C36.5258 33.481 35.9551 33.8606 35.7356 34.4257L33.2299 40.8796H32.9626C32.4318 40.8796 32 41.2927 32 41.8005V42.5404C32 43.0481 32.4318 43.4612 32.9626 43.4612H33.1049V52.0614C33.1049 52.2781 33.2885 52.4537 33.5151 52.4537C33.7416 52.4537 33.9252 52.2781 33.9252 52.0614V43.4612H40.3652C40.7256 43.4612 41.0644 43.327 41.3194 43.0831L46 38.6053L50.6808 43.0831C50.9356 43.3269 51.2745 43.4612 51.6348 43.4612H58.0748V44.5014C58.0748 44.7181 58.2584 44.8937 58.485 44.8937C58.7115 44.8937 58.8951 44.7181 58.8951 44.5014V43.4612H59.0375C59.5681 43.4612 60.0001 43.048 60.0001 42.5403V41.8004C60 41.2927 59.5681 40.8796 59.0374 40.8796ZM36.5046 34.6989C36.6052 34.4398 36.867 34.2657 37.1559 34.2657H54.8441C55.1329 34.2657 55.3947 34.4398 55.4954 34.6989L57.8951 40.8796H52.1938L46.9541 35.8672C46.6993 35.6234 46.3605 35.4892 46 35.4892C45.6395 35.4892 45.3007 35.6234 45.0459 35.8672L39.8063 40.8796H34.1049L36.5046 34.6989ZM59.1797 42.5404C59.1797 42.6154 59.1159 42.6764 59.0374 42.6764H51.6348C51.4935 42.6764 51.3606 42.6238 51.2607 42.5282L46.29 37.7731C46.2131 37.6994 46.1087 37.6581 45.9999 37.6581C45.8911 37.6581 45.7869 37.6994 45.7099 37.7731L40.7392 42.5282C40.6393 42.6238 40.5064 42.6764 40.3651 42.6764H32.9626C32.8841 42.6764 32.8203 42.6154 32.8203 42.5404V41.8005C32.8203 41.7254 32.8841 41.6644 32.9626 41.6644H39.9762C40.0849 41.6644 40.1892 41.623 40.2662 41.5494L45.626 36.4221C45.7259 36.3265 45.8588 36.2739 46.0001 36.2739C46.1414 36.2739 46.2742 36.3265 46.3741 36.4221L51.7338 41.5494C51.8108 41.623 51.9151 41.6644 52.0239 41.6644H59.0375C59.1159 41.6644 59.1798 41.7254 59.1798 41.8005V42.5404H59.1797Z" fill="#FF6600"/>
<path d="M56.662 54.348C56.8887 54.348 57.0722 54.1722 57.0722 53.9555V46.9797C57.0722 46.763 56.8887 46.5873 56.662 46.5873H51.1376C50.9111 46.5873 50.7275 46.763 50.7275 46.9797V53.9555C50.7275 54.1722 50.9111 54.348 51.1376 54.348H56.662ZM56.2518 51.8721H54.3099V50.0145H56.2518V51.8721ZM53.4896 51.8721H51.5478V50.0145H53.4896V51.8721ZM56.2518 53.5632H51.5478V52.6568H56.2518V53.5632ZM56.2518 49.2296H54.3099V47.3721H56.2518V49.2296ZM53.4896 47.3721V49.2297H51.5478V47.3721H53.4896Z" fill="#FF6600"/>
<path d="M40.8623 54.348C41.0888 54.348 41.2724 54.1722 41.2724 53.9555V46.9797C41.2724 46.763 41.0888 46.5873 40.8623 46.5873H35.3379C35.1113 46.5873 34.9277 46.763 34.9277 46.9797V53.9555C34.9277 54.1722 35.1113 54.348 35.3379 54.348H40.8623ZM40.4521 51.8721H38.5103V50.0145H40.4521V51.8721ZM37.6899 51.8721H35.7481V50.0145H37.6899V51.8721ZM40.4521 53.5632H35.7481V52.6568H40.4521V53.5632ZM40.4521 49.2296H38.5103V47.3721H40.4521V49.2296ZM37.6899 47.3721V49.2297H35.7481V47.3721H37.6899Z" fill="#FF6600"/>
<path d="M48.1781 43.333C48.1781 42.1842 47.2011 41.2495 46.0002 41.2495C44.7993 41.2495 43.8223 42.1842 43.8223 43.333C43.8223 44.4818 44.7993 45.4165 46.0002 45.4165C47.2011 45.4165 48.1781 44.4818 48.1781 43.333ZM44.6426 43.333C44.6426 42.6168 45.2517 42.0343 46.0002 42.0343C46.7487 42.0343 47.3578 42.6168 47.3578 43.333C47.3578 44.0491 46.7487 44.6318 46.0002 44.6318C45.2517 44.6318 44.6426 44.0492 44.6426 43.333Z" fill="#FF6600"/>
<path d="M59.5898 54.9374H58.8951V46.3371C58.8951 46.1204 58.7115 45.9448 58.485 45.9448C58.2584 45.9448 58.0748 46.1204 58.0748 46.3371V54.9374H49.5037V46.9799C49.5037 46.7632 49.3201 46.5875 49.0936 46.5875H42.9064C42.6799 46.5875 42.4963 46.7632 42.4963 46.9799V54.9374H33.9252V53.8971C33.9252 53.6805 33.7416 53.5047 33.515 53.5047C33.2884 53.5047 33.1049 53.6805 33.1049 53.8971V54.9374H32.4102C32.1836 54.9374 32 55.113 32 55.3297V57.1266C32 57.3433 32.1836 57.5189 32.4102 57.5189H59.5898C59.8164 57.5189 60 57.3433 60 57.1266V55.3297C60 55.113 59.8164 54.9374 59.5898 54.9374ZM43.3166 52.0756H43.9008C44.1274 52.0756 44.3109 51.9 44.3109 51.6833C44.3109 51.4666 44.1274 51.2909 43.9008 51.2909H43.3166V47.3722H48.6835V54.9374H43.3166V52.0756ZM59.1797 56.7342H32.8203V55.7221H59.1797V56.7342Z" fill="#FF6600"/>
</g>
<defs>
<clipPath id="clip0_204_784">
<rect width="28" height="25" fill="white" transform="translate(32 33)"/>
</clipPath>
</defs>
</svg>
