<svg width="92" height="92" viewBox="0 0 92 92" fill="none" xmlns="http://www.w3.org/2000/svg">
<circle cx="46" cy="46" r="46" fill="#FFEEE3"/>
<path d="M45.3624 34C44.3338 34 43.5 34.8338 43.5 35.8624V36.1887C43.5 36.605 43.7073 36.994 44.0528 37.2262L44.9125 37.8039C45.3762 38.1156 46 37.7832 46 37.2245C46 36.8389 46.3126 36.5263 46.6981 36.5263H54.5C56.7091 36.5263 58.5 38.3172 58.5 40.5263V52.3487C58.5 54.0746 57.1009 55.4737 55.375 55.4737H53.5131C52.8155 55.4737 52.25 56.0392 52.25 56.7369C52.25 57.4345 52.8155 58 53.5131 58H57C59.2091 58 61 56.2091 61 54V38C61 35.7909 59.2091 34 57 34H45.3624ZM42.6099 39.2951C41.259 38.385 39.491 38.385 38.1401 39.2951L32.7651 42.9162C31.6616 43.6596 31 44.903 31 46.2336V54C31 56.2091 32.7909 58 35 58H45.75C47.9591 58 49.75 56.2091 49.75 54V46.2336C49.75 44.903 49.0884 43.6596 47.9849 42.9162L42.6099 39.2951ZM49.2664 39.0526C48.8432 39.0526 48.5001 39.3957 48.5001 39.8189C48.5001 40.0742 48.6272 40.3128 48.8391 40.4551L50.418 41.5155C50.4796 41.5568 50.5521 41.5789 50.6263 41.5789C50.8327 41.5789 51 41.4116 51 41.2053V40.3026C51 39.6123 50.4404 39.0526 49.75 39.0526H49.2664ZM54.75 39.0526C54.0596 39.0526 53.5 39.6123 53.5 40.3026V40.3289C53.5 41.0193 54.0596 41.5789 54.75 41.5789C55.4404 41.5789 56 41.0193 56 40.3289V40.3026C56 39.6123 55.4404 39.0526 54.75 39.0526ZM38.2115 42.3387C39.5294 41.4912 41.2206 41.4912 42.5385 42.3386L45.4135 44.1874C46.5582 44.9235 47.2501 46.191 47.2501 47.5519V53.5987C47.2501 54.6342 46.4106 55.4737 45.375 55.4737C44.3395 55.4737 43.5 54.6342 43.5 53.5987V51.0198C43.5 49.2939 42.1009 47.8948 40.375 47.8948C38.6491 47.8948 37.25 49.2939 37.25 51.0198V53.5987C37.25 54.6342 36.4105 55.4737 35.375 55.4737C34.3395 55.4737 33.5 54.6342 33.5 53.5987V47.5519C33.5 46.191 34.1919 44.9235 35.3365 44.1874L38.2115 42.3387ZM54.75 44.1053C54.0596 44.1053 53.5 44.6649 53.5 45.3553V45.3816C53.5 46.0719 54.0596 46.6316 54.75 46.6316C55.4404 46.6316 56 46.0719 56 45.3816V45.3553C56 44.6649 55.4404 44.1053 54.75 44.1053ZM54.75 49.1579C54.0596 49.1579 53.5 49.7176 53.5 50.4079V50.4342C53.5 51.1246 54.0596 51.6842 54.75 51.6842C55.4404 51.6842 56 51.1246 56 50.4342V50.4079C56 49.7176 55.4404 49.1579 54.75 49.1579Z" fill="#FF842B"/>
</svg>
